# xmcd
#
# Track frame offsets:
#	150
#	1957
#	11372
#	22946
#	32681
#	40605
#	51621
#	60353
#	71147
#	82999
#	94099
#	105366
#	115742
#	124752
#	133149
#	142884
#	155210
#	168149
#	177884
#	189068
#	199778
#	211268
#	219832
#	230319
#	241363
#	252129
#	262393
#	273019
#	287351
#	300011
#	311362
#	318700
#	327432
#	337083
#
# Disc length: 4644 seconds
#
# Revision: 0
# Processed by: cddbd v1.5.2PL0 Copyright (c) Steve Scherf et al.
# Submitted via: audiograbber 1.83.01
#
DISCID=c7122222
DTITLE=The Browns - The Three Bells [BCD 15665-3 HI]
DYEAR=1900
DGENRE=Country
TTITLE0=Bye Bye Love [false start]
TTITLE1=Bye Bye Love
TTITLE2=I Still Do
TTITLE3=Only The Lonely
TTITLE4=Hi De Ank Tum
TTITLE5=Love Me Tender
TTITLE6=Put On An Old Pair Of Shoes
TTITLE7=Blue Bells Ring
TTITLE8=Scarlet Ribbons (For Her Hair)
TTITLE9=Red Sails In The Sunset
TTITLE10=That's My Desire
TTITLE11=That Little Boy Of Mine
TTITLE12=Halfway To Heaven
TTITLE13=Teen Ex
TTITLE14=Oh! My Papa
TTITLE15=Margo (The Ninth Of May)
TTITLE16=Cool Water
TTITLE17=True Love
TTITLE18=The Enchanted Sea
TTITLE19=The Old Lamplighter
TTITLE20=Billy McCoy
TTITLE21=Am I That Easy To Forget
TTITLE22=The Whiffenpoof Song
TTITLE23=Streamlined Cannonball
TTITLE24=My Adobe Hacienda
TTITLE25=Pledge Of Love
TTITLE26=Wabash Blues
TTITLE27=Who's Gonna Buy You Ribbons
TTITLE28=Margo (The Ninth Of May) 1960
TTITLE29=Chandelier Of Stars
TTITLE30=Eternally
TTITLE31=Brighten The Corner Where You Are
TTITLE32=The Blue Skirt Waltz
TTITLE33=Have You Ever Been Lonely
EXTD=
EXTT0=
EXTT1=
EXTT2=
EXTT3=
EXTT4=
EXTT5=
EXTT6=
EXTT7=
EXTT8=
EXTT9=
EXTT10=
EXTT11=
EXTT12=
EXTT13=
EXTT14=
EXTT15=
EXTT16=
EXTT17=
EXTT18=
EXTT19=
EXTT20=
EXTT21=
EXTT22=
EXTT23=
EXTT24=
EXTT25=
EXTT26=
EXTT27=
EXTT28=
EXTT29=
EXTT30=
EXTT31=
EXTT32=
EXTT33=
PLAYORDER=
